<svg xmlns="http://www.w3.org/2000/svg" xmlns:xlink="http://www.w3.org/1999/xlink" viewBox="0 0 616.934 1237.268"><defs><filter id="a" x="20.458" y="232.891" width="577.442" height="135.585" filterUnits="userSpaceOnUse"><feOffset dy="3" input="SourceAlpha"/><feGaussianBlur stdDeviation="10" result="b"/><feFlood flood-opacity="0.4"/><feComposite operator="in" in2="b"/><feComposite in="SourceGraphic"/></filter><filter id="c" x="49.458" y="259.891" width="519.314" height="81.3" filterUnits="userSpaceOnUse"><feOffset dy="3" input="SourceAlpha"/><feGaussianBlur stdDeviation="3" result="d"/><feFlood flood-opacity="0.161"/><feComposite operator="in" in2="d"/><feComposite in="SourceGraphic"/></filter><filter id="e" x="22.566" y="707.072" width="573.269" height="133.818" filterUnits="userSpaceOnUse"><feOffset dy="3" input="SourceAlpha"/><feGaussianBlur stdDeviation="10" result="f"/><feFlood flood-opacity="0.4"/><feComposite operator="in" in2="f"/><feComposite in="SourceGraphic"/></filter><linearGradient id="g" x1="1.07" y1="-0.22" x2="-0.096" y2="1.609" gradientUnits="objectBoundingBox"><stop offset="0" stop-color="#31a39f"/><stop offset="1" stop-color="#00ffba"/></linearGradient><filter id="h" x="19.106" y="394.497" width="576.73" height="124.591" filterUnits="userSpaceOnUse"><feOffset dy="3" input="SourceAlpha"/><feGaussianBlur stdDeviation="10" result="i"/><feFlood flood-opacity="0.4"/><feComposite operator="in" in2="i"/><feComposite in="SourceGraphic"/></filter><filter id="j" x="21.413" y="546.748" width="574.423" height="133.819" filterUnits="userSpaceOnUse"><feOffset dy="3" input="SourceAlpha"/><feGaussianBlur stdDeviation="10" result="k"/><feFlood flood-opacity="0.396"/><feComposite operator="in" in2="k"/><feComposite in="SourceGraphic"/></filter></defs><g transform="translate(-1233.412 589.634)"><path d="M897.211,409.074h-6.8V222.84A107.788,107.788,0,0,0,782.626,115.053H388.064A107.787,107.787,0,0,0,280.277,222.84h0V1244.533a107.787,107.787,0,0,0,107.787,107.787H782.626a107.787,107.787,0,0,0,107.787-107.787h0v-702.9h6.8Z" transform="translate(953.135 -704.687)" fill="#212121"/><path d="M773.307,130.21H721.8A38.244,38.244,0,0,1,686.395,182.9H460.356a38.242,38.242,0,0,1-35.4-52.686h-48.1A80.5,80.5,0,0,0,296.355,210.7V1230.9a80.494,80.494,0,0,0,80.491,80.491H773.307a80.5,80.5,0,0,0,80.5-80.494v0h0V210.7a80.494,80.494,0,0,0-80.495-80.495Z" transform="translate(966.803 -691.802)" fill="#f8f8f8"/><g transform="translate(1186.518 -557.192)"><g transform="translate(97.28 227)"><g transform="matrix(1, 0, 0, 1, -50.39, -259.44)" filter="url(#a)"><g transform="translate(50.46 259.89)" fill="none"><path d="M0,0H517.442V75.585H0Z" stroke="none"/><path d="M 3 2.999977111816406 L 3 72.58491516113281 L 514.4424438476562 72.58491516113281 L 514.4424438476562 2.999977111816406 L 3 2.999977111816406 M 0 -2.288818359375e-05 L 517.4424438476562 -2.288818359375e-05 L 517.4424438476562 75.58491516113281 L 0 75.58491516113281 L 0 -2.288818359375e-05 Z" stroke="none" fill="#000"/></g></g><g transform="matrix(1, 0, 0, 1, -50.39, -259.44)" filter="url(#c)"><path d="M0,0H501.314V63.3H0Z" transform="translate(58.46 265.89)"/></g><text transform="translate(256.107 49.645)" fill="#f4f4f4" font-size="29" font-family="HiraMaruProN-W4, Hiragino Maru Gothic ProN"><tspan x="-59.029" y="0">Outlined</tspan></text></g><g transform="translate(99.46 701.63)"><g transform="translate(0 0)"><g transform="matrix(1, 0, 0, 1, -52.57, -734.07)" filter="url(#e)"><g transform="translate(52.57 734.07)" fill="none" stroke="#000" stroke-width="5"><rect width="513.269" height="73.819" stroke="none"/><rect x="2.5" y="2.5" width="508.269" height="68.819" fill="none"/></g></g></g><text transform="translate(244.171 42.529)" fill="#333" font-size="18" font-family="HiraMaruProN-W4, Hiragino Maru Gothic ProN"><tspan x="-85.059" y="0">NO BACKGROUND</tspan></text></g><g transform="translate(96 389.054)"><g transform="matrix(1, 0, 0, 1, -49.11, -421.5)" filter="url(#h)"><rect width="516.73" height="64.591" rx="32.296" transform="translate(49.11 421.5)" fill="url(#g)"/></g><text transform="translate(251.927 41.301)" fill="#333" font-size="27" font-family="HiraMaruProN-W4, Hiragino Maru Gothic ProN"><tspan x="-56.781" y="0">Gradient</tspan></text></g><g transform="translate(98.307 541.305)"><g transform="translate(0 0)"><g transform="translate(0 0)"><g transform="matrix(1, 0, 0, 1, -51.41, -573.75)" filter="url(#j)"><g transform="translate(51.41 573.75)" fill="none" stroke="#000" stroke-width="4"><rect width="514.423" height="73.819" rx="13" stroke="none"/><rect x="2" y="2" width="510.423" height="69.819" rx="11" fill="none"/></g></g></g><text transform="translate(251.08 45.915)" font-size="27" font-family="HiraMaruProN-W4, Hiragino Maru Gothic ProN"><tspan x="-54.958" y="0">Outlined</tspan></text></g></g></g></g></svg>