<svg xmlns="http://www.w3.org/2000/svg" xmlns:xlink="http://www.w3.org/1999/xlink" viewBox="0 0 616.934 1237.268"><defs><linearGradient id="a" x1="-0.302" y1="0.5" x2="1.268" y2="0.5" gradientUnits="objectBoundingBox"><stop offset="0" stop-color="#fff"/><stop offset="1" stop-color="#e3435d"/></linearGradient><filter id="b" x="69.967" y="217.891" width="477" height="87" filterUnits="userSpaceOnUse"><feOffset dy="3" input="SourceAlpha"/><feGaussianBlur stdDeviation="5" result="c"/><feFlood flood-color="#e3435d"/><feComposite operator="in" in2="c"/><feComposite in="SourceGraphic"/></filter><linearGradient id="d" x1="-0.302" y1="0.5" x2="1.268" y2="0.5" gradientUnits="objectBoundingBox"><stop offset="0" stop-color="#a356cc"/><stop offset="1" stop-color="#e3435d"/></linearGradient><filter id="e" x="57.467" y="372.891" width="502" height="100" filterUnits="userSpaceOnUse"><feOffset dy="3" input="SourceAlpha"/><feGaussianBlur stdDeviation="5" result="f"/><feFlood flood-opacity="0.161"/><feComposite operator="in" in2="f"/><feComposite in="SourceGraphic"/></filter><filter id="h" x="57.467" y="540.891" width="502" height="95" filterUnits="userSpaceOnUse"><feOffset dy="3" input="SourceAlpha"/><feGaussianBlur stdDeviation="5" result="i"/><feFlood flood-opacity="0.161"/><feComposite operator="in" in2="i"/><feComposite in="SourceGraphic"/></filter></defs><g transform="translate(5828 -6494)"><path d="M897.211,409.074h-6.8V222.84A107.788,107.788,0,0,0,782.626,115.053H388.064A107.787,107.787,0,0,0,280.277,222.84h0V1244.533a107.787,107.787,0,0,0,107.787,107.787H782.626a107.787,107.787,0,0,0,107.787-107.787h0v-702.9h6.8Z" transform="translate(-6108.277 6378.947)" fill="#212121"/><path d="M773.307,130.21H721.8A38.244,38.244,0,0,1,686.395,182.9H460.356a38.242,38.242,0,0,1-35.4-52.686h-48.1A80.5,80.5,0,0,0,296.355,210.7V1230.9a80.494,80.494,0,0,0,80.491,80.491H773.307a80.5,80.5,0,0,0,80.5-80.494v0h0V210.7a80.494,80.494,0,0,0-80.495-80.495Z" transform="translate(-6094.609 6391.832)" fill="#fff"/><g transform="matrix(1, 0, 0, 1, -5828, 6494)" filter="url(#b)"><rect width="447" height="57" rx="10" transform="translate(84.97 229.89)" fill="url(#a)"/></g><text transform="translate(-5679.033 6761.891)" fill="#a7a7a7" font-size="25" font-family="HiraginoSans-W1, Hiragino Sans"><tspan x="-49.85" y="0">Search...</tspan></text><g transform="matrix(1, 0, 0, 1, -5828, 6494)" filter="url(#e)"><rect width="472" height="70" rx="35" transform="translate(72.47 384.89)" fill="url(#d)"/></g><text transform="translate(-5691.533 6923.891)" fill="#a7a7a7" font-size="25" font-family="HiraginoSans-W1, Hiragino Sans"><tspan x="-49.85" y="0">Search...</tspan></text><g transform="matrix(1, 0, 0, 1, -5828, 6494)" filter="url(#h)"><rect width="472" height="65" rx="17" transform="translate(72.47 552.89)" fill="url(#d)"/></g><text transform="translate(-5691.533 7087.891)" fill="#a7a7a7" font-size="25" font-family="HiraginoSans-W1, Hiragino Sans"><tspan x="-49.85" y="0">Search...</tspan></text><g transform="translate(-5751.63 7049.891)" fill="none"><path d="M14.905,0H450.35c8.232,0,14.905,6.268,14.905,14V45c0,7.732-6.673,14-14.905,14H14.905C6.673,59,0,52.732,0,45V14C0,6.268,6.673,0,14.905,0Z" stroke="none"/><path d="M 14.90518188476562 3 C 8.34063720703125 3 3 7.934562683105469 3 14 L 3 45 C 3 51.06543731689453 8.34063720703125 56 14.90518188476562 56 L 450.3500671386719 56 C 456.9146118164062 56 462.2552490234375 51.06543731689453 462.2552490234375 45 L 462.2552490234375 14 C 462.2552490234375 7.934562683105469 456.9146118164062 3 450.3500671386719 3 L 14.90518188476562 3 M 14.90518188476562 0 L 450.3500671386719 0 C 458.5819396972656 0 465.2552490234375 6.268001556396484 465.2552490234375 14 L 465.2552490234375 45 C 465.2552490234375 52.73199844360352 458.5819396972656 59 450.3500671386719 59 L 14.90518188476562 59 C 6.673248291015625 59 0 52.73199844360352 0 45 L 0 14 C 0 6.268001556396484 6.673248291015625 0 14.90518188476562 0 Z" stroke="none" fill="#fff"/></g><line x1="427.259" transform="translate(-5723.292 7265.391)" fill="none" stroke="#707070" stroke-linecap="round" stroke-width="3"/><text transform="translate(-5589.555 7244.891)" fill="#a7a7a7" font-size="25" font-family="HiraginoSans-W1, Hiragino Sans"><tspan x="-49.85" y="0">Search...</tspan></text><text transform="translate(-5717.358 7209.891)" fill="#707070" font-size="40" font-family="HelveticaNeue, SF Compact"><tspan x="0" y="38">􀊫</tspan></text><text transform="translate(-5610.292 7396.891)" fill="#a7a7a7" font-size="25" font-family="HiraginoSans-W1, Hiragino Sans"><tspan x="-49.85" y="0">Search...</tspan></text><text transform="translate(-5723.292 7363.891)" fill="#707070" font-size="40" font-family="HelveticaNeue, SF Compact"><tspan x="0" y="38">􀊫</tspan></text></g></svg>